<svg width="24" height="27" viewBox="0 0 24 27" fill="none" xmlns="http://www.w3.org/2000/svg"><path d="M13.367 8.978c1.206 0 2.362.477 3.215 1.326a4.52 4.52 0 0 1 0 6.406 4.557 4.557 0 0 1-6.431 0 4.52 4.52 0 0 1 0-6.406 4.557 4.557 0 0 1 3.216-1.326Z" fill="#E94E3C"/><path d="M13.574 21.042c1.985 0 3.793-.68 5.163-1.906l.956-.85L24 22.507l-1.025.954C20.51 25.74 17.163 27 13.572 27 5.848 27 0 21.147 0 13.415 0 5.651 5.71 0 13.572 0c3.525 0 6.838 1.26 9.334 3.504l1.061.954-4.241 4.222-.955-.817c-1.404-1.227-3.247-1.873-5.197-1.873-4.477 0-7.587 3.065-7.587 7.458 0 4.394 3.212 7.594 7.587 7.594Z" fill="#000"/></svg>